<?xml version="1.0" encoding="utf-8"?>
<!-- Generator: Adobe Illustrator 15.1.0, SVG Export Plug-In . SVG Version: 6.00 Build 0)  -->
<!DOCTYPE svg PUBLIC "-//W3C//DTD SVG 1.1//EN" "http://www.w3.org/Graphics/SVG/1.1/DTD/svg11.dtd">
<svg version="1.1" id="Layer_1" xmlns="http://www.w3.org/2000/svg" xmlns:xlink="http://www.w3.org/1999/xlink" x="0px" y="0px"
	 width="480px" height="480px" viewBox="0 0 480 480" enable-background="new 0 0 480 480" xml:space="preserve">
<path fill="#FFFFFF" d="M240,0.6C107.783,0.571,0.577,107.73,0.548,239.948C0.519,372.164,107.678,479.371,239.895,479.4
	c0.035,0,0.07,0,0.105,0c132.217,0.029,239.424-107.131,239.453-239.348C479.48,107.835,372.321,0.629,240.105,0.6
	C240.07,0.6,240.035,0.6,240,0.6z"/>
<path fill="#01579B" d="M48.012,240c0,76.031,44.16,141.673,108.216,172.8L64.62,161.856C53.976,185.748,48.012,212.112,48.012,240z
	 M369.648,230.328c0-23.724-12.756-40.2-20.041-52.944c-9.756-15.948-18.911-29.244-18.911-45.024
	c0-17.58,17.651-34.08,36.492-34.08c0.852,0,1.619,0.072,2.472,0.096C335.532,67.008,290.016,48,240.012,48
	c-64.667,0-121.836,31.992-156.624,80.988c2.736,0.888,3.684,0.468,7.332,0.468c20.028,0,51.168-2.4,51.168-2.4
	c10.32-0.684,11.58,14.544,1.188,15.792c0,0-10.368,1.26-21.936,1.824l71.171,213.336l42-126.012l-31.235-86.976
	c-10.332-0.552-20.148-1.824-20.148-1.824c-10.344-0.672-9.144-16.5,1.176-15.792c0,0,31.776,2.4,50.604,2.4
	c20.1,0,51.169-2.4,51.169-2.4c10.331-0.684,11.579,14.544,1.246,15.792c0,0-10.438,1.26-21.982,1.824l70.691,211.32l19.188-63.912
	C364.788,267.469,369.648,246.827,369.648,230.328z M243.373,256.752l-57.601,167.425c17.232,5.111,35.4,7.823,54.24,7.823
	c22.332,0,43.788-3.889,63.792-10.885c-0.48-0.851-1.02-1.715-1.415-2.639L243.373,256.752z M408.516,147.816
	c0.852,6.12,1.296,12.708,1.296,19.739c0,19.537-3.671,41.413-14.627,68.844l-58.621,169.62C393.66,372.756,432,310.823,432,240
	C432,206.628,423.468,175.248,408.516,147.816z"/>
<path fill="#01579B" d="M0,240c0,132.288,107.64,240,239.988,240C372.359,480,480,372.288,480,240S372.359,0,240,0
	C107.64,0,0,107.712,0,240z M23.94,240c0-119.088,96.888-215.988,216.048-215.988S456.06,120.912,456.06,240
	c0,119.088-96.911,216.012-216.06,216.012C120.864,456.012,23.94,359.088,23.94,240z"/>
</svg>
