<?xml version="1.0" encoding="utf-8"?>
<!-- Generator: Adobe Illustrator 15.1.0, SVG Export Plug-In . SVG Version: 6.00 Build 0)  -->
<!DOCTYPE svg PUBLIC "-//W3C//DTD SVG 1.1//EN" "http://www.w3.org/Graphics/SVG/1.1/DTD/svg11.dtd">
<svg version="1.1" id="Layer_1" xmlns="http://www.w3.org/2000/svg" xmlns:xlink="http://www.w3.org/1999/xlink" x="0px" y="0px"
	 width="480px" height="480px" viewBox="0 0 480 480" enable-background="new 0 0 480 480" xml:space="preserve">
<path fill="#FF5722" d="M0,53.333C0,23.88,23.88,0,53.333,0h373.333C456.12,0,480,23.88,480,53.333v373.333
	C480,456.12,456.12,480,426.667,480H53.333C23.88,480,0,456.12,0,426.667V53.333z"/>
<path fill="#1C0802" d="M40,40v400h400V40H40z M235.88,333.333l-10.16-38.799h-52.214l-10.146,38.799h-40.493l59.24-189.586h35.026
	l59.64,189.586H235.88z M331.333,333.333h-36.974v-140.88h36.974V333.333z M327.359,170.053c-3.612,3.733-8.479,5.601-14.653,5.601
	c-6.172,0-11.039-1.867-14.652-5.601c-3.613-3.733-5.4-8.427-5.4-14.066c0-5.733,1.826-10.413,5.467-14.067
	c3.641-3.653,8.521-5.467,14.586-5.467c6.067,0,10.935,1.827,14.588,5.467c3.652,3.64,5.467,8.333,5.467,14.067
	C332.761,161.626,330.96,166.32,327.359,170.053z"/>
<path fill="#1C0802" d="M181.854,262.628h35.414l-17.707-67.575L181.854,262.628z"/>
</svg>
