<?xml version="1.0" encoding="utf-8"?>
<!-- Generator: Adobe Illustrator 15.1.0, SVG Export Plug-In . SVG Version: 6.00 Build 0)  -->
<!DOCTYPE svg PUBLIC "-//W3C//DTD SVG 1.1//EN" "http://www.w3.org/Graphics/SVG/1.1/DTD/svg11.dtd">
<svg version="1.1" id="Layer_1" xmlns="http://www.w3.org/2000/svg" xmlns:xlink="http://www.w3.org/1999/xlink" x="0px" y="0px"
	 width="480px" height="480px" viewBox="0 0 480 480" enable-background="new 0 0 480 480" xml:space="preserve">
<path fill="#03A9F4" d="M0,53.333C0,23.88,23.88,0,53.333,0h373.333C456.12,0,480,23.88,480,53.333v373.333
	C480,456.12,456.12,480,426.667,480H53.333C23.88,480,0,456.12,0,426.667V53.333z"/>
<path fill="#020F16" d="M186.88,175.654h-26.693v59.12h26.307c7.293,0,12.933-2.387,16.933-7.16s5.987-11.72,5.987-20.84
	c0-9.467-2.041-16.987-6.12-22.586C199.213,178.586,193.733,175.747,186.88,175.654z"/>
<path fill="#020F16" d="M40,40v400h400V40H40z M231.533,250.521c-11.013,10.772-26.293,16.146-45.827,16.146h-25.52v66.666h-38.28
	V143.747h64.587c18.747,0,33.706,5.827,44.853,17.453c11.147,11.627,16.735,26.734,16.735,45.307
	C248.081,225.08,242.56,239.747,231.533,250.521z M355.761,324.479c-9.453,7.641-21.881,11.454-37.24,11.454
	c-10.333,0-19.454-2.015-27.348-6.054c-7.893-4.04-14.092-9.666-18.56-16.867c-4.468-7.2-6.707-14.974-6.707-23.306h35.027
	c0.187,6.413,1.667,11.239,4.493,14.453c2.826,3.212,7.44,4.813,13.866,4.813c9.894,0,14.84-4.467,14.84-13.414
	c0-3.119-1.492-6.013-4.492-8.653c-3-2.64-9.641-6.214-19.974-10.733c-15.188-6.16-25.628-12.532-31.32-19.146
	c-5.693-6.612-8.534-14.8-8.534-24.613c0-12.333,4.454-22.507,13.348-30.533c8.894-8.027,20.694-12.041,35.347-12.041
	c15.439,0,27.813,4,37.106,11.973c9.293,7.974,13.934,18.707,13.934,32.16h-36.854c0-11.453-4.759-17.187-14.32-17.187
	c-3.906,0-7.105,1.213-9.639,3.64c-2.533,2.427-3.772,5.827-3.772,10.16c0,3.121,1.386,5.88,4.172,8.267
	c2.786,2.386,9.32,5.8,19.667,10.228c15.027,5.56,25.627,11.746,31.841,18.56c6.212,6.813,9.306,15.653,9.306,26.492
	C369.946,306.733,365.214,316.84,355.761,324.479z"/>
</svg>
