<?xml version="1.0" encoding="utf-8"?>
<!-- Generator: Adobe Illustrator 15.1.0, SVG Export Plug-In . SVG Version: 6.00 Build 0)  -->
<!DOCTYPE svg PUBLIC "-//W3C//DTD SVG 1.1//EN" "http://www.w3.org/Graphics/SVG/1.1/DTD/svg11.dtd">
<svg version="1.1" id="Layer_1" xmlns="http://www.w3.org/2000/svg" xmlns:xlink="http://www.w3.org/1999/xlink" x="0px" y="0px"
	 width="48px" height="48px" viewBox="0 0 48 48" enable-background="new 0 0 48 48" xml:space="preserve">
<path fill="#673AB7" d="M48,41.333C48,45.016,45.016,48,41.333,48H6.667C2.985,48,0,45.016,0,41.333V6.667C0,2.984,2.985,0,6.667,0
	h34.667C45.016,0,48,2.984,48,6.667V41.333z"/>
<path fill="#FFFFFF" d="M36.039,26.133c-0.866-1.199-2.12-2.026-3.731-2.466c0,0,1.359-0.493,2.586-2.333
	C35.628,20.16,36,18.747,36,17.093c0-2.867-1.039-5.066-3.12-6.573C30.8,9.013,28.453,8,24.467,8H12v32h13.906
	c3.773-0.026,6.614-0.84,8.547-2.399c1.919-1.588,2.88-3.934,2.88-7.066C37.333,28.8,36.906,27.333,36.039,26.133z M20,13.333
	c0,0,5.56,0,5.667,0c2.025,0,3.666,1.64,3.666,3.667s-1.641,3.667-3.666,3.667c-0.107,0-5.667,0-5.667,0V13.333z M26.667,34.667H20
	v-8h6.667c2.213,0,4,1.786,4,4C30.667,32.88,28.88,34.667,26.667,34.667z"/>
</svg>
