<?xml version="1.0" encoding="utf-8"?>
<!-- Generator: Adobe Illustrator 15.1.0, SVG Export Plug-In . SVG Version: 6.00 Build 0)  -->
<!DOCTYPE svg PUBLIC "-//W3C//DTD SVG 1.1//EN" "http://www.w3.org/Graphics/SVG/1.1/DTD/svg11.dtd">
<svg version="1.1" id="Layer_1" xmlns="http://www.w3.org/2000/svg" xmlns:xlink="http://www.w3.org/1999/xlink" x="0px" y="0px"
	 width="240px" height="240px" viewBox="0 0 240 240" enable-background="new 0 0 240 240" xml:space="preserve">
<linearGradient id="SVGID_1_" gradientUnits="userSpaceOnUse" x1="-301.2139" y1="-811.4458" x2="-335.09" y2="-774.0848" gradientTransform="matrix(5 0 0 -5 1712 -3842.4492)">
	<stop  offset="0" style="stop-color:#823AF3"/>
	<stop  offset="0.36" style="stop-color:#4B66E1"/>
	<stop  offset="0.906" style="stop-color:#01F1C4"/>
</linearGradient>
<path fill="url(#SVGID_1_)" d="M240.5,120c0,66.546-53.954,120.5-120.5,120.5C53.454,240.5-0.5,186.546-0.5,120
	C-0.5,53.454,53.454-0.5,120-0.5C186.546-0.5,240.5,53.454,240.5,120z"/>
<path fill="#FFFFFF" d="M151.295,137.847c-5.032,5.512-12.093,8.302-15.401,8.302c-3.825,0-5.917-2.344-6.344-5.868
	c-0.146-1.35-0.096-2.711,0.145-4.055c1.266-7.893,4.169-12.798,3.989-14.291c-0.055-0.429-0.297-0.639-0.609-0.639
	c-2.445,0-11.025,8.856-12.327,14.719l-1.012,4.694c-0.663,3.307-3.905,5.434-6.134,5.434c-1.066,0-1.874-0.53-2.013-1.705
	c-0.042-0.536,0-1.072,0.127-1.603l0.476-2.47c-4.627,3.457-9.616,5.795-11.953,5.795c-3.193,0-4.983-1.705-5.622-4.271
	c-2.109,2.777-4.898,4.271-7.868,4.271c-3.796,0-7.453-2.512-9.207-6.229c-2.5,2.808-5.465,5.556-9.013,7.827
	c-5.236,3.313-11.063,5.977-17.967,5.977c-6.375,0-11.785-3.41-14.78-6.182c-4.44-4.157-6.784-10.351-7.477-16.003
	c-2.181-17.816,8.665-41.175,25.468-51.411c3.856-2.35,8.176-3.519,12.098-3.519c8.074,0,14.099,5.772,14.942,12.677
	c0.759,6.218-1.724,11.592-8.622,15.068c-3.519,1.783-5.266,1.699-5.814,0.85c-0.368-0.567-0.156-1.531,0.548-2.115
	c6.483-5.417,6.604-9.863,5.844-16.129c-0.494-4.03-3.145-6.615-6.121-6.615c-12.743,0-31.023,28.589-28.48,49.387
	c0.994,8.109,5.965,17.497,16.159,17.497c3.398,0,7.001-0.958,10.207-2.561c5.591-2.856,8.754-5.121,11.929-8.82
	c-0.783-9.617,7.471-21.69,19.75-21.69c5.314,0,9.712,2.133,10.231,6.398c0.651,5.331-3.892,6.398-5.591,6.398
	c-1.488,0-3.874-0.428-4.043-1.813c-0.181-1.495,3.217-0.64,2.796-4.056c-0.259-2.133-2.477-2.88-4.598-2.88
	c-7.645,0-11.869,10.664-11.056,17.286c0.368,2.987,1.898,5.971,4.664,5.971c2.229,0,5.447-3.2,6.682-7.894
	c0.783-3.198,3.808-5.332,6.043-5.332c1.168,0,1.976,0.53,2.121,1.705c0.048,0.429,0.012,0.965-0.126,1.603
	c-0.253,1.387-1.319,6.002-1.265,6.952c0.036,0.832,0.518,1.978,1.964,1.978c1.145,0,5.363-2.278,9.267-5.772
	c1.223-6.332,2.735-14.164,2.856-14.785c0.476-2.566,1.398-5.211,6.604-5.211c1.065,0,1.874,0.53,2.029,1.813
	c0.05,0.421,0.012,0.964-0.126,1.603l-1.458,6.585c4.567-6.085,11.664-10.556,15.918-10.556c1.808,0,3.2,0.952,3.436,2.88
	c0.132,1.073-0.182,2.88-0.888,4.905c-1.511,4.156-3.21,10.405-4.337,15.785c-0.24,1.145,0.157,2.868,2.247,2.868
	c1.669,0,7.025-2.042,11.357-7.761c-0.03-0.808-0.042-1.627-0.042-2.457c0-4.484,0.319-8.11,1.168-10.767
	c0.85-2.778,4.356-5.435,6.688-5.435c1.169,0,2.019,0.639,2.019,1.916c0,0.428-0.108,0.964-0.319,1.494
	c-1.591,4.693-2.44,9.073-2.44,13.441c0,2.452,0.529,6.398,1.066,8.423c0.107,0.429,0.204,0.856,0.633,0.856
	c0.741,0,5.735-4.904,9.345-10.881c-3.192-2.03-4.995-5.761-4.995-10.352c0-7.675,4.567-11.628,9.025-11.628
	c3.507,0,6.688,2.561,6.688,7.676c0,3.206-1.277,6.832-3.073,10.351c0,0,0.741,0.108,1.062,0.108c2.758,0,4.886-1.282,6.06-2.669
	c0.531-0.603,1.024-1.073,1.495-1.35c3.555-4.296,8.767-7.398,14.881-7.398c5.206,0,9.701,2.03,10.219,6.296
	c0.663,5.434-3.981,6.507-5.579,6.507c-1.591,0-3.982-0.428-4.151-1.814c-0.168-1.385,3.32-0.638,2.916-3.939
	c-0.259-2.132-2.488-2.988-4.615-2.988c-7.12,0-12.014,9.496-11.074,17.171c0.374,3.097,1.803,6.086,4.568,6.086
	c2.229,0,5.562-3.206,6.79-7.894c0.788-3.097,3.808-5.331,6.036-5.331c1.061,0,1.978,0.529,2.133,1.813
	c0.078,0.64-0.181,2.031-1.368,7.038c-0.486,2.132-0.583,3.945-0.397,5.44c0.38,3.097,1.796,5.121,3.109,6.295
	c0.477,0.423,0.76,0.953,0.795,1.284c0.103,0.855-0.548,1.603-1.608,1.603c-0.318,0-0.74,0-1.091-0.21
	c-5.47-2.242-7.742-5.972-8.381-9.497c-2.108,2.664-4.903,4.159-7.771,4.159c-4.886,0-9.658-4.271-10.333-9.815
	c-0.276-2.277-0.006-4.729,0.74-7.134c-1.981,1.223-4.113,1.904-6.029,1.904c-0.64,0-1.17,0-1.803-0.109
	c-4.778,6.929-9.772,11.732-13.598,13.87c-1.591,0.855-3.072,1.284-4.139,1.284c-0.856,0-1.808-0.212-2.23-0.958
	C152.336,143.558,151.68,140.931,151.295,137.847L151.295,137.847z M168.604,115.126c0,2.988,1.481,6.085,3.397,8.11
	c0.748-2.031,1.17-4.056,1.17-6.086c0-3.844-1.487-5.548-2.657-5.548C169.135,111.602,168.604,113.529,168.604,115.126z"/>
</svg>
