<?xml version="1.0" encoding="utf-8"?>
<!-- Generator: Adobe Illustrator 15.1.0, SVG Export Plug-In . SVG Version: 6.00 Build 0)  -->
<!DOCTYPE svg PUBLIC "-//W3C//DTD SVG 1.1//EN" "http://www.w3.org/Graphics/SVG/1.1/DTD/svg11.dtd">
<svg version="1.1" id="Layer_1" xmlns="http://www.w3.org/2000/svg" xmlns:xlink="http://www.w3.org/1999/xlink" x="0px" y="0px"
	 width="48px" height="48px" viewBox="0 0 48 48" enable-background="new 0 0 48 48" xml:space="preserve">
<path fill="#0277BD" d="M45.474,0H2.526l3.79,42.947L24,48l17.685-5.053L45.474,0L45.474,0z"/>
<path fill="#039BE5" d="M24,3.79v40.295l14.147-4.043L41.306,3.79H24z"/>
<path fill="#FFFFFF" d="M35.494,10.105H24v5.052h6.19L29.81,20.21H24v5.052h5.559l-0.38,5.685L24,32.716v5.305l9.979-3.284
	l0.883-14.526l0,0L35.494,10.105z"/>
<path fill="#EEEEEE" d="M24,10.105v5.052H12.758l-0.379-5.052H24z M18.189,20.21l0.253,5.052H24V20.21H18.189z M18.694,27.789
	h-5.052l0.379,6.947L24,38.021v-5.305l-5.179-1.769L18.694,27.789z"/>
</svg>
