<?xml version="1.0" encoding="utf-8"?>
<!-- Generator: Adobe Illustrator 15.1.0, SVG Export Plug-In . SVG Version: 6.00 Build 0)  -->
<!DOCTYPE svg PUBLIC "-//W3C//DTD SVG 1.1//EN" "http://www.w3.org/Graphics/SVG/1.1/DTD/svg11.dtd">
<svg version="1.1" id="Layer_1" xmlns="http://www.w3.org/2000/svg" xmlns:xlink="http://www.w3.org/1999/xlink" x="0px" y="0px"
	 width="480px" height="480px" viewBox="0 0 480 480" enable-background="new 0 0 480 480" xml:space="preserve">
<path fill="#E64A19" d="M261.404,160.167h-91.238c-44.091,0-79.833-35.742-79.833-79.833l0,0c0-44.091,35.742-79.833,79.833-79.833
	h91.238V160.167z"/>
<path fill="#7C4DFF" d="M250,319.833h-79.833c-44.091,0-79.833-35.742-79.833-79.833l0,0c0-44.091,35.742-79.833,79.833-79.833H250
	V319.833z"/>
<path fill="#66BB6A" d="M170.167,479.5L170.167,479.5c-44.091,0-79.833-35.742-79.833-79.833l0,0
	c0-44.091,35.742-79.834,79.833-79.834H250v79.834C250,443.758,214.258,479.5,170.167,479.5z"/>
<path fill="#FF7043" d="M329.833,160.167H250V0.5h79.833c44.091,0,79.834,35.742,79.834,79.833l0,0
	C409.667,124.424,373.924,160.167,329.833,160.167z"/>
<circle fill="#29B6F6" cx="329.833" cy="240" r="79.833"/>
</svg>
