<?xml version="1.0" encoding="utf-8"?>
<!-- Generator: Adobe Illustrator 15.1.0, SVG Export Plug-In . SVG Version: 6.00 Build 0)  -->
<!DOCTYPE svg PUBLIC "-//W3C//DTD SVG 1.1//EN" "http://www.w3.org/Graphics/SVG/1.1/DTD/svg11.dtd">
<svg version="1.1" id="Layer_1" xmlns="http://www.w3.org/2000/svg" xmlns:xlink="http://www.w3.org/1999/xlink" x="0px" y="0px"
	 width="48px" height="48px" viewBox="0 0 48 48" enable-background="new 0 0 48 48" xml:space="preserve">
<path fill="#F4511E" d="M46.989,21.6L26.4,1.01C25.769,0.379,24.885,0,24,0l0,0c-0.884,0-1.768,0.379-2.4,1.01l-4.421,4.421
	l5.179,5.179c0.505-0.252,1.01-0.379,1.642-0.379c2.147,0,3.789,1.642,3.789,3.79c0,0.632-0.125,1.137-0.378,1.642l5.053,5.053
	c0.504-0.252,1.01-0.379,1.642-0.379c2.147,0,3.789,1.642,3.789,3.79c0,2.147-1.642,3.789-3.789,3.789s-3.79-1.642-3.79-3.789
	c0-0.632,0.126-1.137,0.379-1.643l-5.053-5.053c-0.126,0-0.253,0.126-0.379,0.126v13.137c1.517,0.506,2.526,1.895,2.526,3.537
	c0,2.147-1.642,3.789-3.789,3.789s-3.79-1.642-3.79-3.789c0-1.643,1.01-3.031,2.526-3.537V17.431
	c-1.516-0.505-2.526-1.895-2.526-3.537c0-0.631,0.126-1.137,0.379-1.642l-5.179-5.179L1.01,21.6C0.379,22.231,0,23.116,0,24
	c0,0.885,0.379,1.769,1.01,2.4L21.6,46.989l0,0C22.232,47.621,23.116,48,24,48c0.885,0,1.769-0.379,2.4-1.011L46.989,26.4
	C47.621,25.769,48,24.885,48,24C48,23.116,47.621,22.231,46.989,21.6z"/>
</svg>
