<?xml version="1.0" encoding="utf-8"?>
<!-- Generator: Adobe Illustrator 15.1.0, SVG Export Plug-In . SVG Version: 6.00 Build 0)  -->
<!DOCTYPE svg PUBLIC "-//W3C//DTD SVG 1.1//EN" "http://www.w3.org/Graphics/SVG/1.1/DTD/svg11.dtd">
<svg version="1.1" id="Layer_1" xmlns="http://www.w3.org/2000/svg" xmlns:xlink="http://www.w3.org/1999/xlink" x="0px" y="0px"
	 width="48px" height="48px" viewBox="0 0 48 48" enable-background="new 0 0 48 48" xml:space="preserve">
<path fill="#E65100" d="M45.474,0H2.526l3.79,42.947L24,48l17.685-5.053L45.474,0L45.474,0z"/>
<path fill="#FF6D00" d="M24,3.79v40.295l14.147-4.043L41.306,3.79H24z"/>
<path fill="#FFFFFF" d="M24,25.263V20.21h10.862l-0.883,14.526L24,38.021v-5.305l5.179-1.769l0.38-5.685H24z M35.242,15.158
	l0.379-5.052H24v5.052H35.242z"/>
<path fill="#EEEEEE" d="M24,32.716v5.305l-9.979-3.284l-0.505-6.947h5.053l0.252,3.158L24,32.716z M17.811,15.158H24v-5.052H12.505
	l0.884,15.157H24V20.21h-5.811L17.811,15.158z"/>
</svg>
