<?xml version="1.0" encoding="utf-8"?>
<!-- Generator: Adobe Illustrator 15.1.0, SVG Export Plug-In . SVG Version: 6.00 Build 0)  -->
<!DOCTYPE svg PUBLIC "-//W3C//DTD SVG 1.1//EN" "http://www.w3.org/Graphics/SVG/1.1/DTD/svg11.dtd">
<svg version="1.1" id="Layer_1" xmlns="http://www.w3.org/2000/svg" xmlns:xlink="http://www.w3.org/1999/xlink" x="0px" y="0px"
	 width="48px" height="48px" viewBox="0 0 48 48" enable-background="new 0 0 48 48" xml:space="preserve">
<path fill="#FFD600" d="M0,48V0h48v48H0z"/>
<path fill="#000001" d="M31.384,35.93c0.924,1.497,1.926,2.935,4.05,2.935c1.784,0,2.72-0.888,2.72-2.114
	c0-1.468-0.969-1.989-2.931-2.844l-1.077-0.458c-3.104-1.318-5.169-2.969-5.169-6.455c0-3.213,2.46-5.659,6.304-5.659
	c2.738,0,4.704,0.948,6.122,3.431l-3.352,2.144c-0.738-1.318-1.535-1.836-2.771-1.836c-1.262,0-2.061,0.794-2.061,1.836
	c0,1.283,0.801,1.805,2.647,2.6l1.075,0.46c3.66,1.558,5.725,3.149,5.725,6.729c0,3.855-3.046,5.969-7.133,5.969
	c-4,0-6.27-2.007-7.534-4.491L31.384,35.93z M15.936,36.039c0.675,1.208,1.7,2.137,3.175,2.137c1.411,0,2.223-0.558,2.223-2.724
	V21.333h4.444v14.802c0,4.488-2.604,6.531-6.407,6.531c-3.436,0-5.916-2.328-6.927-4.491L15.936,36.039z"/>
</svg>
