<?xml version="1.0" encoding="utf-8"?>
<!-- Generator: Adobe Illustrator 15.1.0, SVG Export Plug-In . SVG Version: 6.00 Build 0)  -->
<!DOCTYPE svg PUBLIC "-//W3C//DTD SVG 1.1//EN" "http://www.w3.org/Graphics/SVG/1.1/DTD/svg11.dtd">
<svg version="1.1" id="Layer_1" xmlns="http://www.w3.org/2000/svg" xmlns:xlink="http://www.w3.org/1999/xlink" x="0px" y="0px"
	 width="48px" height="48px" viewBox="0 0 48 48" enable-background="new 0 0 48 48" xml:space="preserve">
<path fill="#0277BD" d="M24.174,0c-1.964,0.006-3.326,0.18-4.972,0.464c-4.86,0.846-5.746,2.623-5.746,5.899v5.006h11.369v2.526
	h-11.8H7.53c-3.33,0-6.244,1.569-7.167,5.329c-1.043,4.316-1.09,7.019,0,11.526c0.828,3.361,2.65,5.882,5.981,5.882h4.588v-6.447
	c0-3.747,3.393-7.448,7.281-7.448h9.139c3.188,0,6.316-2.352,6.316-5.529V6.363c0-3.081-2.221-5.385-5.327-5.901
	C28.418,0.453,26.122-0.007,24.174,0z M17.879,5.053c1.037,0,1.895,0.855,1.895,1.897c0,1.052-0.858,1.893-1.895,1.893
	c-1.057,0-1.895-0.839-1.895-1.893C15.984,5.912,16.822,5.053,17.879,5.053z"/>
<path fill="#FFC107" d="M22.951,48c1.963-0.006,3.326-0.18,4.971-0.464c4.86-0.846,5.746-2.622,5.746-5.898v-5.006H22.3v-2.526
	h11.802h5.494c3.331,0,6.244-1.569,7.167-5.329c1.044-4.316,1.091-7.02,0-11.526c-0.829-3.361-2.65-5.881-5.982-5.881h-4.586v6.447
	c0,3.747-3.394,7.448-7.282,7.448h-9.14c-3.187,0-6.316,2.351-6.316,5.528v10.846c0,3.081,2.222,5.386,5.328,5.901
	C18.708,47.546,21.003,48.008,22.951,48z M29.246,42.947c-1.036,0-1.895-0.854-1.895-1.897c0-1.052,0.858-1.892,1.895-1.892
	c1.059,0,1.896,0.839,1.896,1.892C31.142,42.089,30.303,42.947,29.246,42.947z"/>
</svg>
