<?xml version="1.0" encoding="utf-8"?>
<!-- Generator: Adobe Illustrator 15.1.0, SVG Export Plug-In . SVG Version: 6.00 Build 0)  -->
<!DOCTYPE svg PUBLIC "-//W3C//DTD SVG 1.1//EN" "http://www.w3.org/Graphics/SVG/1.1/DTD/svg11.dtd">
<svg version="1.1" xmlns="http://www.w3.org/2000/svg" xmlns:xlink="http://www.w3.org/1999/xlink" x="0px" y="0px" width="512px"
	 height="512px" viewBox="0 0 512 512" enable-background="new 0 0 512 512" xml:space="preserve">
<g id="New_Layer">
	<g>
		<path fill-rule="evenodd" clip-rule="evenodd" fill="#FFFFFF" d="M343.886,154.287L265.015,38.063
			c-6.838-10.069-17.727-9.865-24.201,0.421L168.11,153.866c-6.474,10.286-2.048,18.705,9.842,18.705h21.311v40.118
			c0,12.561,10.194,22.756,22.756,22.756h68.267c12.584,0,22.756-10.194,22.756-22.756v-40.118h21.606
			C346.548,172.571,350.735,164.355,343.886,154.287"/>
		<path fill-rule="evenodd" clip-rule="evenodd" fill="#FFFFFF" d="M92.892,298.841H67.713C56.619,298.841,52,290.74,52,282.9
			c0-8.078,5.78-15.929,15.713-15.929h84.981c9.944,0,15.724,7.851,15.724,15.929c0,7.84-4.619,15.94-15.724,15.94h-25.168v117.328
			c0,11.56-7.384,18.021-17.317,18.021s-17.317-6.463-17.317-18.021V298.841z"/>
		<path fill-rule="evenodd" clip-rule="evenodd" fill="#FFFFFF" d="M292.447,349.188c0-27.943-14.553-53.134-43.418-53.134
			c-28.877,0-43.429,25.19-43.429,53.134c0,28.171,14.097,53.111,43.429,53.111C278.361,402.299,292.447,377.358,292.447,349.188
			 M169.578,349.188c0-48.037,32.324-85.003,79.451-85.003c46.411,0,79.44,38.127,79.44,85.003c0,47.798-32.097,85.003-79.44,85.003
			C202.141,434.19,169.578,396.985,169.578,349.188"/>
		<path fill-rule="evenodd" clip-rule="evenodd" fill="#FFFFFF" d="M377.586,346.412h23.563c14.541,0,23.768-10.627,23.768-24.475
			c0-13.869-9.227-24.496-23.768-24.496h-23.563V346.412z M342.93,284.982c0-10.865,6.475-18,18.034-18h40.858
			c33.963,0,59.13,22.153,59.13,55.182c0,33.713-26.089,54.738-57.731,54.738h-25.634v37.877c0,11.548-7.384,18.022-17.306,18.022
			c-9.956,0-17.352-6.475-17.352-18.022V284.982z"/>
	</g>
</g>
<g id="MasterLayer_1">
</g>
</svg>
