<svg xmlns="http://www.w3.org/2000/svg" xml:space="preserve" width="512" height="512"><path fill="#7C00C3" d="M512 462c0 27.614-22.386 50-50 50H50c-27.614 0-50-22.386-50-50V50C0 22.386 22.386 0 50 0h412c27.614 0 50 22.386 50 50v412z"/><g fill="#FFF"><path d="M55.192 136.354h30.276v100.313h111.256V136.354h30.641v239.292h-30.641V262.932H85.469v112.715H55.192V136.354zM383.487 380.023c-15.081 0-28.941-2.799-41.584-8.391-12.646-5.59-23.653-13.678-33.012-24.257-9.364-10.578-16.659-23.585-21.887-39.03-5.231-15.44-7.843-32.887-7.843-52.346 0-19.208 2.674-36.478 8.025-51.798 5.347-15.32 12.768-28.327 22.251-39.03 9.485-10.699 20.667-18.906 33.56-24.622 12.887-5.711 26.993-8.573 42.313-8.573 14.592 0 27.415 2.981 38.484 8.937 11.063 5.962 20.119 12.83 27.176 20.61l-16.414 19.698c-6.328-6.805-13.497-12.276-21.522-16.415-8.024-4.132-17.146-6.201-27.358-6.201-11.433 0-21.767 2.251-31.006 6.749-9.244 4.502-17.144 10.943-23.71 19.333-6.565 8.39-11.615 18.546-15.139 30.458-3.528 11.918-5.289 25.294-5.289 40.125 0 15.081 1.761 28.634 5.289 40.671 3.523 12.038 8.447 22.315 14.773 30.824 6.321 8.515 14.043 15.081 23.164 19.697 9.118 4.623 19.39 6.931 30.823 6.931 11.672 0 21.886-2.37 30.64-7.112 8.756-4.742 17.021-11.365 24.806-19.881l16.779 18.969c-9.484 10.943-20.188 19.458-32.101 25.533-11.915 6.077-25.657 9.121-41.218 9.121z"/></g></svg>